# xmcd CD database file
#
# Track frame offsets:
#	150
#	42797
#	52696
#	91967
#	113511
#	115420
#	125235
#	136942
#	140446
#	150166
#	151925
#	155017
#	157506
#	170484
#	173103
#	186263
#	203010
#
# Disc length: 2948 seconds
#
# Revision: 0
# Processed by: cddbd v1.5.1PL0 Copyright (c) Steve Scherf et al.
# Submitted via: CDex 1.51
#
DISCID=ce0b8211
DTITLE=Willie the Lion Smith - Memoirs of Willie the Lion Smith - Disk 2
DYEAR=1968
DGENRE=Blues
TTITLE0=Memories of Thomas "Fats" Waller
TTITLE1=Willie Remembers
TTITLE2=Memories of Duke Ellington
TTITLE3=Memories of Louis Armstrong
TTITLE4=Willie - 1
TTITLE5=Keep Your Temper
TTITLE6=Bring On the Band
TTITLE7=Willie - 2
TTITLE8=The Old Stomping Ground
TTITLE9=Harlem Joys-1
TTITLE10=Harlem Joys-2
TTITLE11=Harlem Joys-3
TTITLE12=Love Remembers
TTITLE13=Willie - 3
TTITLE14=I'm All Out of Breath
TTITLE15=Tango a la Caprice
TTITLE16=Sneakaway
EXTD=YEAR: 1968
EXTT0=
EXTT1=
EXTT2=
EXTT3=
EXTT4=
EXTT5=
EXTT6=
EXTT7=
EXTT8=
EXTT9=
EXTT10=
EXTT11=
EXTT12=
EXTT13=
EXTT14=
EXTT15=
EXTT16=
PLAYORDER=
